<svg preserveAspectRatio="none" width="100%" height="100%" overflow="visible" style="display: block;" viewBox="0 0 114 172" fill="none" xmlns="http://www.w3.org/2000/svg">
<path id="Vector" d="M112.771 61.4344C110.269 58.2351 107.072 55.0411 104.461 51.8882C103.402 50.049 104.326 47.9986 104.606 46.0719C105.883 41.1004 101.004 29.8078 100.256 25.7637C99.3324 22.1884 103.511 19.1334 101.331 15.7229C101.71 13.3222 101.03 10.7824 98.0503 11.2821C94.3597 11.4367 94.5414 8.75779 88.9407 8.52596C86.5945 8.15503 84.7467 6.74346 82.8054 5.51219C80.8173 4.32214 77.1216 3.88939 75.5956 3.92545L61.5237 0.788039C59.3437 -0.0723022 55.6583 -0.798698 53.9402 1.8493C48.7651 1.63293 41.7526 1.06623 37.7506 4.78579C28.7344 8.87628 21.3793 16.2896 18.7632 25.7122C14.4031 29.8954 16.4949 34.975 14.7872 39.6683C13.9411 39.5601 13.1314 39.5137 12.3528 39.5292C-0.919692 39.3231 -4.61024 56.0714 6.79879 63.4745C5.9631 65.8752 6.89222 68.415 9.22282 67.6165C8.77643 70.4448 9.86127 77.4048 14.4031 76.3899C17.1593 78.2188 20.4969 79.0585 23.7981 79.007C24.203 79.0121 24.6131 79.007 25.0179 78.9812C26.3052 89.7278 37.9011 84.6275 36.4529 95.0907L37.0914 93.7461C38.6693 82.9068 27.2551 88.1307 26.2222 77.3172C23.2376 77.616 18.6438 78.2033 15.5139 75.715C14.8858 75.2874 14.2681 74.9371 13.4428 75.3698C12.5293 75.0813 11.2679 73.4173 10.9254 71.4545C10.5568 69.3526 11.1278 66.9467 10.6243 66.7819C10.2921 66.6788 9.40968 66.7201 8.83352 66.6582C7.22961 66.5088 8.24698 64.8345 8.84909 63.1241C4.20347 58.807 -1.28823 52.8722 2.66704 46.3243C4.59796 42.2493 8.80238 40.5028 12.9601 40.6522C15.2803 40.7347 16.578 41.9093 16.7441 41.8577C18.5452 39.9877 17.9431 36.1599 18.0625 33.8313C18.0106 30.9103 18.7269 28.3962 20.5021 26.1758C22.0489 20.2204 25.7654 15.0017 30.8159 11.4728C33.977 7.94896 37.8752 6.23858 41.981 4.10576C45.9674 2.97753 50.2029 3.73484 54.3399 3.98212C54.6565 4.00273 54.9731 3.84302 55.134 3.54937C56.3071 1.32382 59.027 2.18416 61.0202 2.88995C61.1137 2.93116 75.0765 5.84705 75.1751 5.87796C80.428 5.36794 83.7812 9.77783 88.5099 10.8855C93.2437 11.0606 94.422 13.8529 99.0417 13.3068C99.758 14.0898 98.9067 15.5323 99.3324 16.4545C101.061 19.3961 96.8357 22.3429 98.1022 26.2222C98.1022 26.2222 101.668 34.5217 102.831 41.9968C103.635 47.1692 100.77 50.0696 102.945 53.5728L107.061 58.3897C109.823 61.4395 115.268 66.3955 108.494 68.2295C106.402 68.8941 104.99 69.1053 104.58 69.8626C103.817 71.2639 105.592 74.1746 104.746 74.9526C103.142 76.0859 103.822 78.837 102.462 79.8725C102.452 79.8828 102.447 79.8931 102.442 79.9034C101.637 80.1455 100.256 80.3722 98.7302 80.5061C100.049 81.284 101.3 81.5622 102.317 81.6756C102.769 82.5823 103.625 83.5044 102.717 84.9057C102.083 86.58 101.03 88.7953 101.637 90.6963C105.629 98.0118 95.7612 99.8303 90.2643 99.1039C85.9301 98.8721 80.7031 99.717 78.2065 103.73C77.2566 111.138 70.0987 116.996 71.4898 124.857C73.2234 127.088 107.829 172 107.829 172V170.909C103.988 166.2 76.6544 127.799 74.6093 123.729C73.784 116.512 79.4314 111.829 80.2775 104.822C85.2657 98.5063 94.6504 103.977 100.947 100.103C104.606 98.0272 105.037 93.0661 102.919 88.8726C103.096 85.73 106.392 83.0923 103.667 80.908C104.923 80.027 105.234 78.4506 105.463 77.2399C107.321 75.8129 107.217 73.2576 107.015 71.2433C111.748 70.0223 116.259 66.514 112.75 61.4395L112.771 61.4344ZM103.952 38.7719L103.968 38.8079C103.968 38.8182 103.968 38.8028 103.952 38.7719Z" fill="url(#paint0_linear_203_70)"/>
<defs>
<linearGradient id="paint0_linear_203_70" x1="57" y1="1.56169e-09" x2="57" y2="161.5" gradientUnits="userSpaceOnUse">
<stop stop-color="#D6BC97"/>
<stop offset="1" stop-color="#40534D"/>
</linearGradient>
</defs>
</svg>
