<svg preserveAspectRatio="none" width="100%" height="100%" overflow="visible" style="display: block;" viewBox="0 0 64 64" fill="none" xmlns="http://www.w3.org/2000/svg">
<g id="pasta">
<path id="Vector" d="M44.9097 15H63C63.1313 15 63.2614 14.9742 63.3827 14.9239C63.5041 14.8737 63.6143 14.8 63.7072 14.7072C63.8 14.6143 63.8737 14.5041 63.924 14.3827C63.9742 14.2614 64 14.1313 64 14V10C64 9.86867 63.9742 9.73862 63.924 9.61728C63.8737 9.49594 63.8 9.38568 63.7072 9.29282C63.6143 9.19995 63.5041 9.12629 63.3827 9.07605C63.2614 9.02581 63.1313 8.99997 63 9H44.9097C44.6727 7.60338 43.9496 6.33552 42.8681 5.42055C41.7867 4.50557 40.4166 4.00241 39 4H38.8157C38.6103 3.41674 38.2293 2.91137 37.7252 2.55327C37.221 2.19517 36.6184 2.0019 36 2H28C27.2046 2.00087 26.4421 2.31722 25.8796 2.87964C25.3172 3.44206 25.0009 4.20462 25 5V28.7803C24.6931 28.5022 24.3318 28.2908 23.939 28.1596C23.5462 28.0284 23.1304 27.9802 22.718 28.018C22.3056 28.0558 21.9055 28.1789 21.5431 28.3794C21.1808 28.5799 20.864 28.8535 20.6128 29.1828C20.3616 29.5121 20.1816 29.8899 20.0841 30.2924C19.9866 30.6949 19.9737 31.1133 20.0463 31.521C20.1188 31.9288 20.2753 32.317 20.5057 32.6611C20.7361 33.0053 21.0355 33.2978 21.3849 33.5202C20.8388 34.294 20.3802 35.126 20.0176 36.0009L20 36C19.3381 36.005 18.6775 36.0607 18.0241 36.1665C17.6529 35.7719 17.2394 35.4193 16.791 35.1152C15.6581 34.3838 14.3378 33.9956 12.9893 33.9973C11.6407 33.9991 10.3215 34.3907 9.19041 35.125C8.37341 35.6534 7.67702 36.3482 7.14672 37.164C6.61641 37.9798 6.26409 38.8982 6.11277 39.8594C6.06222 40.1159 5.95895 40.3591 5.8095 40.5736C5.66006 40.7881 5.4677 40.9692 5.24461 41.1055C4.04348 41.8662 3.10287 42.9751 2.54827 44.2843C1.99368 45.5934 1.85147 47.0406 2.14061 48.4326C2.18138 48.6298 2.24949 48.8111 2.30485 49H2C1.46975 49.0006 0.961397 49.2115 0.586456 49.5865C0.211514 49.9614 0.000606092 50.4698 0 51V53C0.000606092 53.5302 0.211514 54.0386 0.586456 54.4135C0.961397 54.7885 1.46975 54.9994 2 55H3.4198L6.55615 60.4883C6.81897 60.9471 7.19815 61.3284 7.65543 61.5938C8.11271 61.8592 8.63191 61.9993 9.16064 62H54.8394C55.3681 61.9993 55.8873 61.8592 56.3446 61.5938C56.8019 61.3284 57.181 60.9471 57.4439 60.4883L60.5802 55H62C62.5302 54.9994 63.0386 54.7885 63.4135 54.4135C63.7885 54.0386 63.9994 53.5302 64 53V51C63.9994 50.4698 63.7885 49.9614 63.4135 49.5865C63.0386 49.2115 62.5302 49.0006 62 49H57C56.9997 47.2242 56.6369 45.4671 55.9337 43.8364C56.3831 43.6899 56.7914 43.4391 57.1252 43.1045C57.459 42.7698 57.7087 42.3608 57.8539 41.9111C57.9992 41.4613 58.0358 40.9835 57.9607 40.5168C57.8857 40.0502 57.7012 39.6079 57.4223 39.2263C57.1434 38.8448 56.778 38.5347 56.3562 38.3215C55.9343 38.1084 55.468 37.9982 54.9953 38C54.5227 38.0019 54.0572 38.1156 53.637 38.3321C53.2168 38.5485 52.8539 38.8614 52.5779 39.2451C50.2074 37.158 47.1584 36.0045 44 36L43.9907 36.0005C42.972 33.5575 41.2306 31.4845 39 30.0596V20C40.4166 19.9976 41.7867 19.4944 42.8681 18.5795C43.9496 17.6645 44.6727 16.3966 44.9097 15ZM62 13H45V11H62V13ZM43 10V14C42.9989 15.0605 42.5771 16.0773 41.8272 16.8272C41.0773 17.5771 40.0605 17.9989 39 18V6C40.0605 6.00113 41.0773 6.42292 41.8272 7.17282C42.5771 7.92272 42.9989 8.93948 43 10ZM33 28.0394C32.6691 28.0139 32.3358 28 32 28C31.6646 28 31.3312 28.0136 31 28.0386V4H33V28.0394ZM28 4H29V28.3472C28.3167 28.5082 27.6477 28.7252 27 28.996V5C27.0003 4.73486 27.1057 4.48066 27.2932 4.29319C27.4807 4.10571 27.7349 4.00026 28 4ZM23 30C23.1978 30 23.3911 30.0586 23.5556 30.1685C23.72 30.2784 23.8482 30.4346 23.9239 30.6173C23.9996 30.8 24.0194 31.0011 23.9808 31.1951C23.9422 31.3891 23.847 31.5673 23.7071 31.7071C23.5673 31.847 23.3891 31.9422 23.1951 31.9808C23.0011 32.0194 22.8 31.9996 22.6173 31.9239C22.4346 31.8482 22.2784 31.72 22.1685 31.5556C22.0586 31.3911 22 31.1978 22 31C22.0003 30.7349 22.1057 30.4807 22.2932 30.2932C22.4807 30.1057 22.7349 30.0003 23 30ZM36.3259 38.5305C35.8943 37.7628 35.2661 37.1238 34.5059 36.6791C33.7456 36.2344 32.8807 36 32 36C31.1193 36 30.2544 36.2344 29.4941 36.6791C28.7339 37.1238 28.1057 37.7628 27.6741 38.5305C27.1338 38.1313 26.5634 37.7746 25.968 37.4635C26.5832 36.4095 27.4638 35.5351 28.5222 34.9274C29.5805 34.3197 30.7796 33.9999 32 33.9999C33.2204 33.9999 34.4195 34.3197 35.4779 34.9274C36.5362 35.5351 37.4168 36.4095 38.032 37.4635C37.4366 37.7746 36.8662 38.1313 36.3259 38.5305ZM34.7692 39.8589C33.5878 41.0508 32.6475 42.4596 32 44.008C31.3525 42.4596 30.4122 41.0508 29.2308 39.8589C29.4557 39.3092 29.8392 38.8389 30.3324 38.5078C30.8255 38.1768 31.406 38 32 38C32.594 38 33.1745 38.1768 33.6676 38.5078C34.1608 38.8389 34.5443 39.3092 34.7692 39.8589ZM31 49H29C29 46.6131 28.0518 44.3239 26.364 42.636C24.6761 40.9482 22.3869 40 20 40C17.6131 40 15.3239 40.9482 13.636 42.636C11.9482 44.3239 11 46.6131 11 49H9C9 46.0826 10.1589 43.2847 12.2218 41.2218C14.2847 39.1589 17.0826 38 20 38C22.9174 38 25.7153 39.1589 27.7782 41.2218C29.8411 43.2847 31 46.0826 31 49ZM25 49C25 47.6739 24.4732 46.4021 23.5355 45.4645C22.5979 44.5268 21.3261 44 20 44C18.6739 44 17.4021 44.5268 16.4645 45.4645C15.5268 46.4021 15 47.6739 15 49H13C13 47.1435 13.7375 45.363 15.0503 44.0503C16.363 42.7375 18.1435 42 20 42C21.8565 42 23.637 42.7375 24.9497 44.0503C26.2625 45.363 27 47.1435 27 49H25ZM17 49C17 48.2044 17.3161 47.4413 17.8787 46.8787C18.4413 46.3161 19.2044 46 20 46C20.7956 46 21.5587 46.3161 22.1213 46.8787C22.6839 47.4413 23 48.2044 23 49H17ZM4.10107 48.0361C3.89368 47.0394 3.99531 46.0032 4.39238 45.0658C4.78944 44.1284 5.46305 43.3345 6.32324 42.79C6.78313 42.5014 7.17763 42.1198 7.48143 41.6698C7.78523 41.2198 7.99164 40.7112 8.0874 40.1768C8.21792 39.3648 8.54785 38.5978 9.04763 37.9447C9.54742 37.2916 10.2014 36.7726 10.9511 36.4344C11.7007 36.0962 12.5226 35.9493 13.343 36.0067C14.1634 36.0642 14.9567 36.3244 15.6519 36.7639C13.1242 37.6626 10.9362 39.3208 9.38734 41.5112C7.83854 43.7017 7.00469 46.3173 7 49H4.41614C4.27806 48.6905 4.17247 48.3675 4.10107 48.0361ZM55.7075 59.4961C55.6198 59.649 55.4934 59.776 55.341 59.8645C55.1886 59.953 55.0156 59.9997 54.8394 60H9.16064C8.98442 59.9997 8.81138 59.953 8.65897 59.8645C8.50656 59.776 8.38015 59.649 8.29248 59.4961L5.72314 55H58.2769L55.7075 59.4961ZM62 51L62.0015 53H2V51H62ZM49 49C49 47.6739 48.4732 46.4021 47.5355 45.4645C46.5979 44.5268 45.3261 44 44 44C42.6739 44 41.4021 44.5268 40.4645 45.4645C39.5268 46.4021 39 47.6739 39 49H37C37 47.1435 37.7375 45.363 39.0503 44.0503C40.363 42.7375 42.1435 42 44 42C45.8565 42 47.637 42.7375 48.9497 44.0503C50.2625 45.363 51 47.1435 51 49H49ZM41 49C41 48.2044 41.3161 47.4413 41.8787 46.8787C42.4413 46.3161 43.2044 46 44 46C44.7956 46 45.5587 46.3161 46.1213 46.8787C46.6839 47.4413 47 48.2044 47 49H41ZM55 40C55.1978 40 55.3911 40.0586 55.5556 40.1685C55.72 40.2784 55.8482 40.4346 55.9239 40.6173C55.9996 40.8 56.0194 41.0011 55.9808 41.1951C55.9422 41.3891 55.847 41.5673 55.7071 41.7071C55.5673 41.847 55.3891 41.9422 55.1951 41.9808C55.0011 42.0194 54.8 41.9996 54.6173 41.9239C54.4346 41.8482 54.2784 41.72 54.1685 41.5556C54.0586 41.3911 54 41.1978 54 41C54.0003 40.7349 54.1057 40.4807 54.2932 40.2932C54.4807 40.1057 54.7349 40.0003 55 40ZM52.0526 41.5206C52.1327 41.9662 52.3129 42.3879 52.5796 42.7538C52.8463 43.1197 53.1926 43.4203 53.5924 43.6329C54.5121 45.2725 54.9966 47.1202 55 49H53C53 46.6131 52.0518 44.3239 50.364 42.636C48.6761 40.9482 46.3869 40 44 40C41.6131 40 39.3239 40.9482 37.636 42.636C35.9482 44.3239 35 46.6131 35 49H33C32.9981 46.7898 33.6627 44.6304 34.9069 42.8036C36.1511 40.9769 37.9172 39.5677 39.9745 38.7601C42.0319 37.9524 44.285 37.7838 46.4396 38.2763C48.5943 38.7687 50.5504 39.8994 52.0526 41.5206ZM41.8825 36.1882C41.2002 36.299 40.528 36.4644 39.8722 36.683C39.1029 35.2663 37.9655 34.0835 36.5799 33.2593C35.1944 32.4351 33.6121 32 32 32C30.3879 32 28.8056 32.4351 27.4201 33.2593C26.0345 34.0835 24.8971 35.2663 24.1278 36.683C23.4722 36.4645 22.8002 36.299 22.1182 36.1883C22.5133 35.3804 23.0081 34.6251 23.591 33.9403C24.1165 33.832 24.6032 33.5846 25.0005 33.2241C25.3978 32.8636 25.6911 32.403 25.8498 31.8905C27.6622 30.6544 29.8062 29.9954 32 30C34.0614 30.0027 36.0807 30.5842 37.8278 31.6782C39.575 32.7722 40.9798 34.3349 41.8825 36.1882ZM35 28.3522V4H36C36.2651 4.00026 36.5193 4.10571 36.7068 4.29319C36.8943 4.48066 36.9997 4.73486 37 5V29.0054C36.3521 28.7338 35.6833 28.5154 35 28.3522Z" fill="url(#paint0_linear_203_58)"/>
</g>
<defs>
<linearGradient id="paint0_linear_203_58" x1="-0.273067" y1="1.73466" x2="71.9451" y2="51.0217" gradientUnits="userSpaceOnUse">
<stop stop-color="#D6BC97"/>
<stop offset="1" stop-color="#86A389"/>
</linearGradient>
</defs>
</svg>
