<svg preserveAspectRatio="none" width="100%" height="100%" overflow="visible" style="display: block;" viewBox="0 0 64 64" fill="none" xmlns="http://www.w3.org/2000/svg">
<g id="chef" clip-path="url(#clip0_203_61)">
<path id="Union" d="M27 0C28.1897 7.38426e-06 29.3647 0.265947 30.4385 0.77832C31.5121 1.2907 32.4577 2.03713 33.2061 2.96191C34.3705 2.32938 35.6749 1.99834 37 2C38.8564 1.99964 40.6552 2.64476 42.0879 3.8252C43.5206 5.0057 44.4979 6.64849 44.8525 8.4707C45.2071 10.2928 44.9175 12.1819 44.0322 13.8135C43.1469 15.445 41.7209 16.7172 40 17.4131V22C41.3261 22 42.5975 22.5272 43.5352 23.4648C44.4728 24.4025 45 25.6739 45 27C45 28.3261 44.4728 29.5975 43.5352 30.5352C42.5975 31.4728 41.3261 32 40 32H38.8193C38.3815 34.5841 37.1076 36.953 35.1934 38.7432L42.3447 41.3711C42.4679 41.4164 42.5812 41.4853 42.6777 41.5742C42.7742 41.6632 42.8521 41.7705 42.9072 41.8896C42.9623 42.0087 42.9936 42.1375 42.999 42.2686C43.0044 42.3997 42.9837 42.5311 42.9385 42.6543C42.8932 42.7775 42.8243 42.8908 42.7354 42.9873C42.6464 43.0838 42.539 43.1617 42.4199 43.2168C42.3009 43.2719 42.1721 43.3032 42.041 43.3086C41.9098 43.3139 41.7785 43.2933 41.6553 43.248L34 40.4355V40.8799C34.0003 42.3069 33.6191 43.7085 32.8955 44.9385C32.1719 46.1683 31.1322 47.1821 29.8848 47.875L25 50.5879V62H42V56C42 55.7348 42.1054 55.4805 42.293 55.293C42.4805 55.1054 42.7348 55 43 55C43.2652 55 43.5195 55.1054 43.707 55.293C43.8946 55.4805 44 55.7348 44 56V62H48C48.2652 62 48.5195 62.1054 48.707 62.293C48.8946 62.4805 49 62.7348 49 63C49 63.2652 48.8946 63.5195 48.707 63.707C48.5195 63.8946 48.2652 64 48 64H2C1.86867 64 1.73853 63.9741 1.61719 63.9238C1.49589 63.8736 1.3858 63.7999 1.29297 63.707C1.20013 63.6142 1.12641 63.5041 1.07617 63.3828C1.02593 63.2615 0.999966 63.1313 1 63V51.5801C1.00476 49.7406 1.57084 47.9461 2.62207 46.4365C3.6732 44.9273 5.15946 43.7743 6.88281 43.1318L18.8076 38.7441C16.8928 36.9539 15.6186 34.5845 15.1807 32H14C12.6739 32 11.4025 31.4728 10.4648 30.5352C9.52716 29.5975 9 28.3261 9 27C9 25.6739 9.52716 24.4025 10.4648 23.4648C11.4025 22.5272 12.6739 22 14 22V17.4131C12.2791 16.7172 10.8531 15.445 9.96777 13.8135C9.08246 12.1819 8.7929 10.2928 9.14746 8.4707C9.50212 6.64849 10.4794 5.0057 11.9121 3.8252C13.3448 2.64476 15.1437 1.99964 17 2C18.3251 1.99836 19.6295 2.32939 20.7939 2.96191C21.5423 2.03711 22.4878 1.2907 23.5615 0.77832C24.6353 0.26594 25.8103 0 27 0ZM62 34C62.1313 34 62.2615 34.0259 62.3828 34.0762C62.5041 34.1264 62.6142 34.2001 62.707 34.293C62.7999 34.3858 62.8736 34.4959 62.9238 34.6172C62.9741 34.7385 63 34.8687 63 35V44.6338C63.0347 46.3647 62.4491 48.0512 61.3486 49.3877C60.2482 50.7241 58.7053 51.6218 57 51.9199V63C57 63.1313 56.9741 63.2615 56.9238 63.3828C56.8736 63.5041 56.7999 63.6142 56.707 63.707C56.6142 63.7999 56.5041 63.8736 56.3828 63.9238C56.2615 63.9741 56.1313 64 56 64H52C51.8687 64 51.7385 63.9741 51.6172 63.9238C51.4959 63.8736 51.3858 63.7999 51.293 63.707C51.2001 63.6142 51.1264 63.5041 51.0762 63.3828C51.0259 63.2615 51 63.1313 51 63V51.9199C49.2947 51.6218 47.7518 50.7241 46.6514 49.3877C45.5509 48.0512 44.9653 46.3647 45 44.6338V35C45 34.8687 45.0259 34.7385 45.0762 34.6172C45.1264 34.4959 45.2001 34.3858 45.293 34.293C45.3858 34.2001 45.4959 34.1264 45.6172 34.0762C45.7385 34.0259 45.8687 34 46 34H62ZM7.5752 45.0088C6.23469 45.5087 5.07822 46.4059 4.26074 47.5801C3.44344 48.7541 3.00365 50.1496 3 51.5801V62H10V56C10 55.7348 10.1054 55.4805 10.293 55.293C10.4805 55.1054 10.7348 55 11 55C11.2652 55 11.5195 55.1054 11.707 55.293C11.8946 55.4805 12 55.7348 12 56V62H23V50C23 49.8218 23.0474 49.6468 23.1377 49.4932C23.228 49.3395 23.358 49.2127 23.5137 49.126L24.9414 48.333L24.1152 47.875C22.8678 47.1821 21.8281 46.1683 21.1045 44.9385C20.3809 43.7085 19.9997 42.3069 20 40.8799V40.4365L7.5752 45.0088ZM53 62H55V52H53V62ZM29 57C29.5523 57 30 57.4477 30 58C30 58.5523 29.5523 59 29 59C28.4477 59 28 58.5523 28 58C28 57.4477 28.4477 57 29 57ZM29 52C29.5523 52 30 52.4477 30 53C30 53.5523 29.5523 54 29 54C28.4477 54 28 53.5523 28 53C28 52.4477 28.4477 52 29 52ZM47 44.6338C46.9508 46.0032 47.446 47.3362 48.377 48.3418C49.3078 49.3472 50.5987 49.9436 51.9678 50H56.0312C57.4005 49.9437 58.6921 49.3474 59.623 48.3418C60.554 47.3362 61.0492 46.0032 61 44.6338V36H47V44.6338ZM31.999 40.8955C30.433 41.6233 28.7268 42 27 42C25.2732 42 23.567 41.6233 22.001 40.8955C22.0031 41.9627 22.2899 43.0104 22.832 43.9297C23.3742 44.8489 24.1521 45.6067 25.085 46.125L27.002 47.1875L28.915 46.125C29.8479 45.6067 30.6258 44.8489 31.168 43.9297C31.71 43.0104 31.9969 41.9627 31.999 40.8955ZM50 38C50.2652 38 50.5195 38.1054 50.707 38.293C50.8946 38.4805 51 38.7348 51 39V45C51 45.1313 50.9741 45.2615 50.9238 45.3828C50.8736 45.5041 50.7999 45.6142 50.707 45.707C50.6142 45.7999 50.5041 45.8736 50.3828 45.9238C50.2615 45.9741 50.1313 46 50 46C49.8687 46 49.7385 45.9741 49.6172 45.9238C49.4959 45.8736 49.3858 45.7999 49.293 45.707C49.2001 45.6142 49.1264 45.5041 49.0762 45.3828C49.0259 45.2615 49 45.1313 49 45V39C49 38.7348 49.1054 38.4805 49.293 38.293C49.4805 38.1054 49.7348 38 50 38ZM54 38C54.2652 38 54.5195 38.1054 54.707 38.293C54.8946 38.4805 55 38.7348 55 39V45C55 45.1313 54.9741 45.2615 54.9238 45.3828C54.8736 45.5041 54.7999 45.6142 54.707 45.707C54.6142 45.7999 54.5041 45.8736 54.3828 45.9238C54.2615 45.9741 54.1313 46 54 46C53.8687 46 53.7385 45.9741 53.6172 45.9238C53.4959 45.8736 53.3858 45.7999 53.293 45.707C53.2001 45.6142 53.1264 45.5041 53.0762 45.3828C53.0259 45.2615 53 45.1313 53 45V39C53 38.7348 53.1054 38.4805 53.293 38.293C53.4805 38.1054 53.7348 38 54 38ZM58 38C58.2652 38 58.5195 38.1054 58.707 38.293C58.8946 38.4805 59 38.7348 59 39V45C59 45.1313 58.9741 45.2615 58.9238 45.3828C58.8736 45.5041 58.7999 45.6142 58.707 45.707C58.6142 45.7999 58.5041 45.8736 58.3828 45.9238C58.2615 45.9741 58.1313 46 58 46C57.8687 46 57.7385 45.9741 57.6172 45.9238C57.4959 45.8736 57.3858 45.7999 57.293 45.707C57.2001 45.6142 57.1264 45.5041 57.0762 45.3828C57.0259 45.2615 57 45.1313 57 45V39C57 38.7348 57.1054 38.4805 57.293 38.293C57.4805 38.1054 57.7348 38 58 38ZM17 30C17 32.6522 18.0533 35.1959 19.9287 37.0713C21.8041 38.9467 24.3478 40 27 40C29.6522 40 32.1959 38.9467 34.0713 37.0713C35.9467 35.1959 37 32.6522 37 30V24H17V30ZM29.8066 33.0156C29.9358 32.9894 30.0689 32.9893 30.1982 33.0146C30.3276 33.04 30.4509 33.091 30.5605 33.1641C30.6703 33.2373 30.7647 33.3316 30.8379 33.4414C30.9111 33.5512 30.9619 33.6742 30.9873 33.8037C31.0126 33.9331 31.0126 34.0662 30.9863 34.1953C30.96 34.3245 30.9079 34.4475 30.834 34.5566C30.76 34.6659 30.665 34.7596 30.5547 34.832C29.5027 35.5356 28.2656 35.9111 27 35.9111C25.7344 35.9111 24.4973 35.5356 23.4453 34.832C23.2247 34.6849 23.0716 34.4562 23.0195 34.1963C22.9675 33.9363 23.0209 33.666 23.168 33.4453C23.3151 33.2248 23.5438 33.0716 23.8037 33.0195C24.0637 32.9675 24.334 33.0209 24.5547 33.168C25.2783 33.6522 26.1293 33.9111 27 33.9111C27.8707 33.9111 28.7217 33.6522 29.4453 33.168C29.5545 33.094 29.6774 33.0419 29.8066 33.0156ZM14 24C13.2044 24 12.4415 24.3163 11.8789 24.8789C11.3163 25.4415 11 26.2044 11 27C11 27.7956 11.3163 28.5585 11.8789 29.1211C12.4415 29.6837 13.2044 30 14 30H15V24H14ZM39 30H40C40.7954 29.9991 41.5577 29.6825 42.1201 29.1201C42.6825 28.5577 42.9991 27.7954 43 27C42.9991 26.2046 42.6825 25.4423 42.1201 24.8799C41.5577 24.3175 40.7954 24.0009 40 24H39V30ZM31 26.1729C32.015 26.1729 32.9886 26.5759 33.707 27.293C33.8008 27.3856 33.8757 27.4957 33.9268 27.6172C33.9777 27.7387 34.0035 27.8692 34.0039 28.001C34.0043 28.1328 33.979 28.2639 33.9287 28.3857C33.8784 28.5076 33.8041 28.6187 33.7109 28.7119C33.6179 28.8049 33.5074 28.8785 33.3857 28.9287C33.2639 28.979 33.1328 29.0043 33.001 29.0039C32.8692 29.0035 32.7387 28.9778 32.6172 28.9268C32.4957 28.8757 32.3856 28.8008 32.293 28.707C31.9498 28.3647 31.4848 28.1719 31 28.1719C30.5152 28.1719 30.0502 28.3646 29.707 28.707C29.5191 28.8926 29.2651 28.9959 29.001 28.9951C28.737 28.9942 28.4845 28.8888 28.2979 28.7021C28.1112 28.5155 28.0058 28.263 28.0049 27.999C28.004 27.7349 28.1074 27.4809 28.293 27.293C29.0114 26.5759 29.985 26.1729 31 26.1729ZM23 26.1729C24.015 26.1729 24.9886 26.5759 25.707 27.293C25.8926 27.4809 25.996 27.7349 25.9951 27.999C25.9942 28.263 25.8888 28.5155 25.7021 28.7021C25.5155 28.8888 25.263 28.9942 24.999 28.9951C24.735 28.9959 24.4809 28.8926 24.293 28.707C23.9498 28.3647 23.4848 28.1719 23 28.1719C22.5152 28.1719 22.0502 28.3646 21.707 28.707C21.5191 28.8926 21.2651 28.9959 21.001 28.9951C20.737 28.9942 20.4845 28.8888 20.2979 28.7021C20.1112 28.5155 20.0058 28.263 20.0049 27.999C20.004 27.7349 20.1074 27.4809 20.293 27.293C21.0114 26.5759 21.985 26.1729 23 26.1729ZM16 22H38V20H16V22ZM27 2C25.9805 2 24.9776 2.2607 24.0869 2.75684C23.1964 3.25297 22.4468 3.9682 21.9102 4.83496C21.838 4.95086 21.7431 5.0512 21.6309 5.12891C21.5186 5.20656 21.3916 5.26038 21.2578 5.28711C21.1238 5.31383 20.9851 5.31289 20.8516 5.28418C20.7183 5.25547 20.5924 5.19935 20.4814 5.12012C19.5852 4.47843 18.529 4.09605 17.4297 4.01562C16.3304 3.93521 15.23 4.15965 14.25 4.66406C13.27 5.16846 12.4484 5.93373 11.875 6.875C11.3016 7.81637 10.9986 8.89774 11 10C11.0059 11.2902 11.4251 12.5447 12.1963 13.5791C12.9675 14.6134 14.0503 15.3732 15.2852 15.7471C15.4916 15.8086 15.673 15.9357 15.8018 16.1084C15.9305 16.2811 16 16.4907 16 16.7061V18H38V16.7061C38 16.4907 38.0695 16.2811 38.1982 16.1084C38.327 15.9357 38.5084 15.8086 38.7148 15.7471C39.9497 15.3732 41.0325 14.6134 41.8037 13.5791C42.5749 12.5447 42.9941 11.2902 43 10C43.0014 8.89775 42.6984 7.81636 42.125 6.875C41.5516 5.93375 40.73 5.16845 39.75 4.66406C38.77 4.15966 37.6696 3.93521 36.5703 4.01562C35.471 4.09605 34.4148 4.47845 33.5186 5.12012C33.4076 5.19936 33.2818 5.25547 33.1484 5.28418C33.0149 5.31289 32.8762 5.31383 32.7422 5.28711C32.6084 5.26038 32.4814 5.20656 32.3691 5.12891C32.2569 5.05119 32.162 4.95087 32.0898 4.83496C31.5532 3.9682 30.8036 3.25297 29.9131 2.75684C29.0224 2.2607 28.0195 2 27 2Z" fill="url(#paint0_linear_203_61)"/>
</g>
<defs>
<linearGradient id="paint0_linear_203_61" x1="0.73546" y1="-0.283028" x2="74.8213" y2="45.6383" gradientUnits="userSpaceOnUse">
<stop stop-color="#D6BC97"/>
<stop offset="1" stop-color="#86A389"/>
</linearGradient>
<clipPath id="clip0_203_61">
<rect width="64" height="64" fill="white"/>
</clipPath>
</defs>
</svg>
