<svg preserveAspectRatio="none" width="100%" height="100%" overflow="visible" style="display: block;" viewBox="0 0 64 64" fill="none" xmlns="http://www.w3.org/2000/svg">
<g id="food-delivery">
<path id="Union" d="M53 0C53.7954 0.000868196 54.5577 0.317462 55.1201 0.879883C55.6825 1.4423 55.9991 2.20462 56 3V7C55.9979 7.6276 55.7989 8.23889 55.4307 8.74707C55.0623 9.25524 54.5431 9.63472 53.9473 9.83203L59.4668 16.7314C60.4573 17.974 60.9978 19.5155 61 21.1045V63C60.9919 63.2627 60.8841 63.5124 60.6982 63.6982C60.5124 63.8841 60.2627 63.9919 60 64H4C3.86866 64.0001 3.73855 63.9741 3.61719 63.9238C3.49587 63.8736 3.38582 63.7999 3.29297 63.707C3.20012 63.6142 3.1264 63.5041 3.07617 63.3828C3.02594 63.2615 2.99992 63.1313 3 63V21.1045C3.00221 19.5154 3.54265 17.974 4.5332 16.7314L9.9248 9.99219C9.14364 9.9728 8.40074 9.64957 7.85449 9.09082C7.30822 8.53192 7.00153 7.78152 7 7V3C7.00087 2.20462 7.31746 1.4423 7.87988 0.879883C8.4423 0.317462 9.20462 0.000868238 10 0H53ZM12.4814 10L6.0957 17.9814C5.38749 18.8684 5.0012 19.9695 5 21.1045V62H43V21.1045C43.0022 19.5154 43.5427 17.974 44.5332 16.7314L49.9189 10H12.4814ZM45.9629 62H58.0361L51.999 53.6992L45.9629 62ZM46.0957 17.9814C45.3875 18.8684 45.0012 19.9695 45 21.1045V59.9248L50.999 51.6748V36C50.999 35.7348 51.1045 35.4805 51.292 35.293C51.4795 35.1054 51.7338 35 51.999 35C52.2642 35 52.5185 35.1054 52.7061 35.293C52.8936 35.4805 52.999 35.7348 52.999 36V51.6748L59 59.9258V21.1045C58.9988 19.9695 58.6125 18.8684 57.9043 17.9814L52 10.6016L46.0957 17.9814ZM16 24C20.1133 24 23 30.4873 23 34C22.9978 35.3228 22.6209 36.6178 21.9131 37.7354C21.2052 38.8529 20.1951 39.7472 19 40.3145V55C19 55.7956 18.6837 56.5585 18.1211 57.1211C17.5585 57.6837 16.7956 58 16 58C15.2044 58 14.4415 57.6837 13.8789 57.1211C13.3163 56.5585 13 55.7956 13 55V40.3145C11.8049 39.7472 10.7948 38.8529 10.0869 37.7354C9.37913 36.6178 9.00216 35.3228 9 34C9 30.4873 11.8867 24 16 24ZM38 24C38.1313 23.9999 38.2615 24.0259 38.3828 24.0762C38.5041 24.1264 38.6142 24.2001 38.707 24.293C38.7999 24.3858 38.8736 24.4959 38.9238 24.6172C38.9741 24.7385 39.0001 24.8687 39 25V37C38.9975 37.8844 38.7011 38.7432 38.1582 39.4414C37.6153 40.1394 36.8564 40.6381 36 40.8584V55C36 55.7956 35.6837 56.5585 35.1211 57.1211C34.5585 57.6837 33.7956 58 33 58C32.2044 58 31.4415 57.6837 30.8789 57.1211C30.3163 56.5585 30 55.7956 30 55V40.8584C29.1436 40.6381 28.3847 40.1394 27.8418 39.4414C27.2989 38.7432 27.0025 37.8844 27 37V25C27 24.7348 27.1054 24.4805 27.293 24.293C27.4805 24.1054 27.7348 24 28 24C28.2652 24 28.5195 24.1054 28.707 24.293C28.8946 24.4805 29 24.7348 29 25V33H32V25C32 24.7348 32.1054 24.4805 32.293 24.293C32.4805 24.1054 32.7348 24 33 24C33.2652 24 33.5195 24.1054 33.707 24.293C33.8946 24.4805 34 24.7348 34 25V33H37V25C36.9999 24.8687 37.0259 24.7385 37.0762 24.6172C37.1264 24.4959 37.2001 24.3858 37.293 24.293C37.3858 24.2001 37.4959 24.1264 37.6172 24.0762C37.7385 24.0259 37.8687 23.9999 38 24ZM17 40.9199C16.3376 41.0265 15.6624 41.0265 15 40.9199V55C15 55.2652 15.1054 55.5195 15.293 55.707C15.4805 55.8946 15.7348 56 16 56C16.2652 56 16.5195 55.8946 16.707 55.707C16.8946 55.5195 17 55.2652 17 55V40.9199ZM32 41V55C32.0002 55.2652 32.1055 55.5195 32.293 55.707C32.4805 55.8945 32.7348 55.9998 33 56C33.2652 55.9998 33.5195 55.8945 33.707 55.707C33.8945 55.5195 33.9998 55.2652 34 55V41H32ZM16 26C13.4707 26 11 31.0615 11 34C11.0016 35.3256 11.5285 36.5968 12.4658 37.5342C13.4032 38.4715 14.6744 38.9984 16 39C17.3256 38.9984 18.5968 38.4715 19.5342 37.5342C20.4715 36.5968 20.9984 35.3256 21 34C21 31.0615 18.5293 26 16 26ZM29 35V37C29.0007 37.5302 29.212 38.0382 29.5869 38.4131C29.9618 38.788 30.4698 38.9993 31 39H35C35.5302 38.9993 36.0382 38.788 36.4131 38.4131C36.788 38.0382 36.9993 37.5302 37 37V35H29ZM10 2C9.73484 2.00018 9.48047 2.10547 9.29297 2.29297C9.10547 2.48047 9.00018 2.73484 9 3V7C9.00018 7.26516 9.10547 7.51953 9.29297 7.70703C9.48047 7.89453 9.73484 7.99982 10 8H53C53.2652 7.99982 53.5195 7.89453 53.707 7.70703C53.8945 7.51953 53.9998 7.26516 54 7V3C53.9998 2.73484 53.8945 2.48047 53.707 2.29297C53.5195 2.10547 53.2652 2.00018 53 2H10Z" fill="url(#paint0_linear_203_53)"/>
</g>
<defs>
<linearGradient id="paint0_linear_203_53" x1="2.75253" y1="-0.283028" x2="74.5462" y2="41.3455" gradientUnits="userSpaceOnUse">
<stop stop-color="#D6BC97"/>
<stop offset="1" stop-color="#86A389"/>
</linearGradient>
</defs>
</svg>
