<svg preserveAspectRatio="none" width="100%" height="100%" overflow="visible" style="display: block;" viewBox="0 0 244.003 83.9983" fill="none" xmlns="http://www.w3.org/2000/svg">
<g id="&#208;&#161;&#208;&#187;&#208;&#190;&#208;&#185; 1">
<path id="Vector" d="M37.6627 14.0111C37.6627 14.0111 37.6627 14.0096 37.658 14C37.6611 14.0064 37.6627 14.0111 37.6627 14.0111Z" fill="var(--fill-0, #D6BC97)"/>
<path id="Vector_2" d="M244.001 62.8252H38.1089V61.709H243.536L244.001 62.8252Z" fill="var(--fill-0, #D6BC97)"/>
<g id="Group">
<path id="Vector_3" d="M69.0259 35.1544H71.9559V57.3263H69.0259V36.358L60.2021 57.3263H59.6295L51.8236 38.7967V62.1499H51.3146V37.5615L50.2949 35.1544H53.5449L61.2873 53.524L69.0277 35.1544H69.0259Z" fill="var(--fill-0, #D6BC97)"/>
<path id="Vector_4" d="M90.7355 57.3263H87.6127L85.0962 50.1998H76.0797L73.5631 57.3263H73.0542L80.3494 36.6444L79.8087 35.1563H82.9314L90.7374 57.3282L90.7355 57.3263ZM80.6038 37.3718L76.2069 49.7869H84.9671L80.602 37.3718H80.6038Z" fill="var(--fill-0, #D6BC97)"/>
<path id="Vector_5" d="M109.468 35.1544H112.398V57.3263H109.468V36.358L100.645 57.3263H100.072L92.266 38.7967V57.3263H91.7571V37.5615L90.7374 35.1544H93.9874L101.73 53.524L109.47 35.1544H109.468Z" fill="var(--fill-0, #D6BC97)"/>
<path id="Vector_6" d="M132.201 35.1544H135.131V57.3263H132.201V36.358L123.378 57.3263H122.805L114.999 38.7967V57.3263H114.49V37.5615L113.47 35.1544H116.72L124.461 53.524L132.203 35.1544H132.201Z" fill="var(--fill-0, #D6BC97)"/>
<path id="Vector_7" d="M153.475 57.3263H150.352L147.836 50.1998H138.819L136.303 57.3263H135.794L143.089 36.6444L142.548 35.1563H145.671L153.477 57.3282L153.475 57.3263ZM143.345 37.3718L138.948 49.7869H147.709L143.343 37.3718H143.345Z" fill="var(--fill-0, #D6BC97)"/>
<path id="Vector_8" d="M180.48 35.1544H183.41V57.3263H180.48V36.358L171.656 57.3263H171.083L163.277 38.7967V57.3263H162.769V37.5615L161.749 35.1544H164.999L172.739 53.524L180.482 35.1544H180.48Z" fill="var(--fill-0, #D6BC97)"/>
<path id="Vector_9" d="M202.004 57.3263H198.881L196.365 50.1998H187.348L184.832 57.3263H184.323L191.618 36.6444L191.077 35.1563H194.2L202.006 57.3282L202.004 57.3263ZM191.873 37.3718L187.476 49.7869H196.236L191.871 37.3718H191.873Z" fill="var(--fill-0, #D6BC97)"/>
<path id="Vector_10" d="M219.453 57.3263H216.172L214.1 52.6702C212.763 49.545 211.329 47.9825 209.799 47.9825C209.586 47.9825 209.385 48.0141 209.193 48.0773C208.343 48.4791 207.615 48.9386 207.011 49.4558C206.405 49.9729 205.933 50.6109 205.593 51.3718V57.3263H202.663V35.1544H208.111C211.298 35.1544 213.745 35.5971 215.455 36.4845C217.165 37.3718 218.02 38.8283 218.02 40.856C218.02 42.1023 217.743 43.1161 217.191 43.8974C216.639 44.6787 215.955 45.2814 215.137 45.7037C214.319 46.126 213.219 46.5799 211.84 47.0654C211.459 47.1919 210.884 47.4039 210.121 47.6997C210.716 47.5937 211.236 47.5416 211.681 47.5416C212.828 47.5416 213.842 47.895 214.723 48.6019C215.605 49.3088 216.417 50.4863 217.161 52.1326L219.455 57.3263H219.453ZM205.597 50.6426C206.042 49.8613 206.616 49.2176 207.316 48.7098C208.018 48.2038 208.94 47.6755 210.087 47.1268C211.191 46.578 212.072 46.0813 212.731 45.6386C213.389 45.1959 213.941 44.5876 214.387 43.8174C214.832 43.0473 215.057 42.0595 215.057 40.856C215.057 38.9344 214.467 37.5894 213.288 36.8174C212.11 36.0473 210.385 35.6622 208.111 35.6622H205.595V50.6444L205.597 50.6426Z" fill="var(--fill-0, #D6BC97)"/>
<path id="Vector_11" d="M220.49 57.3263V35.1544H223.42V57.3263H220.49Z" fill="var(--fill-0, #D6BC97)"/>
<path id="Vector_12" d="M244.001 62.8251L240.557 61.8932L236.428 50.198H227.411L224.894 57.3245H224.386L231.681 36.6426L231.14 35.1544H234.263L244.003 62.8251H244.001ZM231.935 37.3718L227.538 49.7869H236.298L231.933 37.3718H231.935Z" fill="var(--fill-0, #D6BC97)"/>
</g>
<g id="Group_2">
<path id="Vector_13" d="M93.4205 74.3101C98.3076 74.0534 100.476 79.8554 96.3599 82.5397C94.2868 84.0744 89.6896 83.8958 86.8344 83.8698V68.4876C88.7466 68.5341 93.3119 68.2402 94.5693 69.1369C97.6658 71.3356 93.8022 73.5809 91.6954 74.5538C92.2698 74.392 92.8442 74.312 93.4186 74.312L93.4205 74.3101ZM88.8682 68.7722V76.7712C89.7027 74.8421 92.3184 74.3231 93.3101 72.5299C94.6142 69.0401 91.6954 68.562 88.8682 68.7722ZM90.6139 83.5182C92.7731 83.5182 94.7826 82.8801 95.9071 81.1669C97.1494 79.3067 96.8239 76.1164 94.5917 75.1454C92.4756 73.979 89.5006 75.1993 88.8682 77.3646V83.5163H90.6139V83.5182Z" fill="var(--fill-0, #D6BC97)"/>
<path id="Vector_14" d="M101.35 83.8698V68.4876H103.384V83.8698H101.35Z" fill="var(--fill-0, #D6BC97)"/>
<path id="Vector_15" d="M109.803 83.6931C108.475 83.3601 107.945 83.0959 106.853 82.4616L106.787 78.6165H106.875C107.715 81.4701 111.222 85.3617 114.29 83.0011C116.084 81.5036 114.885 78.6593 112.986 77.7831C111.28 76.7433 108.692 75.9973 107.45 74.3883C104.207 68.9936 112.123 66.8507 115.716 69.8735V73.4767H115.65C114.803 70.1767 111.755 66.7465 108.821 70.026C107.71 71.5923 108.784 73.5939 110.391 74.3436C112.262 75.4244 115.014 76.1238 116.258 77.9692C118.865 82.2012 113.495 84.9469 109.805 83.6931H109.803Z" fill="var(--fill-0, #D6BC97)"/>
<path id="Vector_16" d="M129.629 68.4876V68.7741H124.279V83.8698H122.246V68.7741H117.207V68.4876H129.629Z" fill="var(--fill-0, #D6BC97)"/>
<path id="Vector_17" d="M143.029 83.8698H140.752C139.899 82.0784 138.209 77.1042 136.331 77.3869C135.027 77.6418 133.968 78.5868 133.414 79.7382V83.8698H131.38V68.4876C133.883 68.4914 138.468 68.2867 140.254 69.4103C142.135 70.2065 142.522 73.0173 141.459 74.552C140.269 76.1741 138.524 76.3619 136.553 77.1879C140.496 76.0811 141.729 81.1408 143.029 83.8679V83.8698ZM133.414 79.2323C134.652 76.8679 138.221 76.7991 139.513 74.4961C141.36 69.5349 137.743 68.5751 133.414 68.8374V79.2304V79.2323Z" fill="var(--fill-0, #D6BC97)"/>
<path id="Vector_18" d="M147.555 82.8467C140.339 77.7236 146.086 64.7858 154.848 69.4103C162.001 74.0125 155.692 87.7614 147.555 82.8467ZM150.053 83.3638C155.932 83.215 159.404 69.4252 152.087 68.949C146.27 68.9936 143.055 82.8894 150.053 83.3638Z" fill="var(--fill-0, #D6BC97)"/>
<path id="Vector_19" d="M175.359 74.3101C180.246 74.0534 182.414 79.8554 178.298 82.5397C176.225 84.0744 171.628 83.8958 168.773 83.8698V68.4876C170.685 68.5341 175.25 68.2402 176.508 69.1369C179.604 71.3356 175.74 73.5809 173.634 74.5538C174.208 74.392 174.782 74.312 175.357 74.312L175.359 74.3101ZM170.805 68.7722V76.7712C171.639 74.8421 174.255 74.3231 175.247 72.5299C176.551 69.0401 173.632 68.562 170.805 68.7722ZM172.552 83.5182C174.711 83.5182 176.721 82.8801 177.845 81.1669C179.088 79.3067 178.762 76.1164 176.53 75.1454C174.414 73.979 171.439 75.1993 170.807 77.3646V83.5163H172.552V83.5182Z" fill="var(--fill-0, #D6BC97)"/>
<path id="Vector_20" d="M193.637 83.8698H191.47L189.725 78.9253H183.47L181.724 83.8698H181.37L186.432 69.5201L186.055 68.4876H188.222L193.637 83.8698ZM186.609 70.026L183.56 78.6407H189.639L186.611 70.026H186.609Z" fill="var(--fill-0, #D6BC97)"/>
<path id="Vector_21" d="M207.46 83.8698H205.183C204.33 82.0784 202.64 77.1042 200.762 77.3869C199.458 77.6418 198.401 78.5868 197.845 79.7382V83.8698H195.811V68.4876C198.315 68.4914 202.899 68.2867 204.685 69.4103C206.566 70.2065 206.953 73.0173 205.89 74.552C204.7 76.1741 202.955 76.3619 200.985 77.1879C204.927 76.0811 206.16 81.1408 207.46 83.8679V83.8698ZM197.847 79.2323C199.085 76.8679 202.653 76.7991 203.946 74.4961C205.793 69.5349 202.176 68.5751 197.847 68.8374V79.2304V79.2323Z" fill="var(--fill-0, #D6BC97)"/>
</g>
<path id="Vector_22" d="M40.6498 22.183C39.748 21.0278 38.5954 19.8745 37.6543 18.7361C37.2726 18.072 37.6056 17.3316 37.7067 16.6359C38.1669 14.8408 36.4082 10.7632 36.1387 9.30289C35.8057 8.01189 37.3119 6.90879 36.526 5.67732C36.6626 4.81046 36.4175 3.89337 35.3435 4.07381C34.0132 4.12962 34.0787 3.16231 32.0599 3.0786C31.2142 2.94466 30.5481 2.43496 29.8483 1.99037C29.1317 1.56066 27.7995 1.4044 27.2494 1.41742L22.1771 0.284549C21.3912 -0.0261073 20.0628 -0.288398 19.4435 0.667754C17.578 0.589625 15.0503 0.385001 13.6077 1.72808C10.3577 3.20509 7.70646 5.88194 6.76345 9.28428C5.19178 10.7948 5.94581 12.629 5.33024 14.3236C5.02526 14.2846 4.73338 14.2678 4.45272 14.2734C-0.331515 14.199 -1.66182 20.2465 2.45072 22.9197C2.14948 23.7865 2.48439 24.7036 3.32449 24.4153C3.16358 25.4366 3.55463 27.9497 5.19178 27.5832C6.1853 28.2436 7.38838 28.5468 8.57836 28.5282C8.7243 28.5301 8.87211 28.5282 9.01805 28.5189C9.48207 32.3994 13.662 30.5577 13.1399 34.3358L13.3701 33.8503C13.9389 29.9364 9.82447 31.8227 9.45213 27.9181C8.37629 28.026 6.72042 28.238 5.59219 27.3396C5.36579 27.1852 5.14314 27.0587 4.84564 27.2149C4.51634 27.1108 4.06168 26.5099 3.93819 25.8012C3.80535 25.0422 4.01116 24.1735 3.82967 24.1139C3.70992 24.0767 3.39185 24.0916 3.18416 24.0693C2.60601 24.0153 2.97273 23.4108 3.18978 22.7932C1.5152 21.2343 -0.464359 19.0914 0.961371 16.727C1.6574 15.2556 3.17294 14.625 4.67164 14.6789C5.50799 14.7087 5.97575 15.1328 6.03562 15.1142C6.68487 14.4389 6.46783 13.0568 6.51086 12.216C6.49215 11.1612 6.75036 10.2535 7.39025 9.4517C7.94782 7.30129 9.28748 5.41689 11.108 4.14264C12.2475 2.87025 13.6526 2.25266 15.1326 1.48253C16.5696 1.07514 18.0963 1.34859 19.5875 1.43788C19.7017 1.44533 19.8158 1.38766 19.8738 1.28163C20.2967 0.478012 21.2771 0.788668 21.9956 1.04352C22.0292 1.0584 27.0623 2.11128 27.0979 2.12244C28.9914 1.93828 30.2001 3.53063 31.9046 3.93058C33.611 3.99382 34.0357 5.00206 35.7009 4.80488C35.9591 5.08763 35.6523 5.60849 35.8057 5.94147C36.4287 7.00366 34.9057 8.0677 35.3622 9.46845C35.3622 9.46845 36.6477 12.4653 37.0668 15.1644C37.3568 17.0321 36.324 18.0794 37.1079 19.3443L38.5917 21.0836C39.587 22.1849 41.5498 23.9744 39.1081 24.6367C38.354 24.8766 37.8451 24.9529 37.6973 25.2264C37.4223 25.7323 38.0622 26.7834 37.7572 27.0642C37.179 27.4735 37.4241 28.4669 36.9339 28.8408C36.9302 28.8445 36.9283 28.8482 36.9264 28.8519C36.6364 28.9393 36.1387 29.0212 35.5886 29.0696C36.0639 29.3505 36.5148 29.4509 36.8815 29.4918C37.0443 29.8192 37.353 30.1522 37.0256 30.6582C36.7973 31.2628 36.4175 32.0627 36.6364 32.7491C38.0753 35.3906 34.5184 36.0472 32.537 35.785C30.9747 35.7012 29.0905 36.0063 28.1906 37.4554C27.8482 40.1304 25.268 42.2455 25.7694 45.0842C26.3944 45.8897 38.1014 62.8288 38.1014 62.8288L38.8686 61.7127C37.484 60.0124 27.6311 46.1464 26.8939 44.6768C26.5964 42.0706 28.6321 40.3797 28.9371 37.8498C30.7352 35.5692 34.118 37.5447 36.3876 36.1458C37.7067 35.3962 37.862 33.6048 37.0986 32.0906C37.1622 30.9558 38.3503 30.0034 37.368 29.2147C37.8208 28.8966 37.9331 28.3273 38.0154 27.8902C38.6852 27.3749 38.6478 26.4522 38.5748 25.7249C40.2812 25.284 41.9071 24.0172 40.6423 22.1849L40.6498 22.183ZM37.4709 13.9999L37.4765 14.013C37.4765 14.0167 37.4765 14.0111 37.4709 13.9999Z" fill="var(--fill-0, #D6BC97)"/>
</g>
</svg>
